HIERARCHY
ROOT mixamorig:Hips
{
	OFFSET -0.000008 104.274872 1.554316
	CHANNELS 6 Xposition Yposition Zposition Xrotation Yrotation Zrotation
	JOINT mixamorig:Spine
	{
		OFFSET -0.000005 10.181595 0.131519
		CHANNELS 6 Xposition Yposition Zposition Xrotation Yrotation Zrotation
		JOINT mixamorig:Spine1
		{
			OFFSET -0.000000 9.893959 -1.470707
			CHANNELS 6 Xposition Yposition Zposition Xrotation Yrotation Zrotation
			JOINT mixamorig:Spine2
			{
				OFFSET -0.000000 9.220757 -1.370641
				CHANNELS 6 Xposition Yposition Zposition Xrotation Yrotation Zrotation
				JOINT mixamorig:Neck
				{
					OFFSET 0.000001 16.740417 -2.049036
					CHANNELS 6 Xposition Yposition Zposition Xrotation Yrotation Zrotation
					JOINT mixamorig:Head
					{
						OFFSET 0.000000 9.617874 1.685006
						CHANNELS 6 Xposition Yposition Zposition Xrotation Yrotation Zrotation
						JOINT mixamorig:HeadTop_End
						{
							OFFSET 0.000002 22.037354 7.501101
							CHANNELS 6 Xposition Yposition Zposition Xrotation Yrotation Zrotation
							End Site
							{
								OFFSET 0.000168 2310.654297 -282.823242
							}
						}
					}
				}
				JOINT mixamorig:RightShoulder
				{
					OFFSET -4.569970 11.014908 -2.160885
					CHANNELS 6 Xposition Yposition Zposition Xrotation Yrotation Zrotation
					JOINT mixamorig:RightArm
					{
						OFFSET -10.592851 -0.524811 -2.232101
						CHANNELS 6 Xposition Yposition Zposition Xrotation Yrotation Zrotation
						JOINT mixamorig:RightForeArm
						{
							OFFSET -27.841511 0.000031 -0.000004
							CHANNELS 6 Xposition Yposition Zposition Xrotation Yrotation Zrotation
							JOINT mixamorig:RightHand
							{
								OFFSET -28.328831 -0.000015 0.000015
								CHANNELS 6 Xposition Yposition Zposition Xrotation Yrotation Zrotation
								JOINT mixamorig:RightHandThumb1
								{
									OFFSET -2.464806 -1.573990 2.681852
									CHANNELS 6 Xposition Yposition Zposition Xrotation Yrotation Zrotation
									JOINT mixamorig:RightHandThumb2
									{
										OFFSET -3.215179 -1.872803 1.924282
										CHANNELS 6 Xposition Yposition Zposition Xrotation Yrotation Zrotation
										JOINT mixamorig:RightHandThumb3
										{
											OFFSET -2.654831 -1.527969 1.512609
											CHANNELS 6 Xposition Yposition Zposition Xrotation Yrotation Zrotation
											JOINT mixamorig:RightHandThumb4
											{
												OFFSET -2.018814 -1.152008 1.108052
												CHANNELS 6 Xposition Yposition Zposition Xrotation Yrotation Zrotation
												End Site
												{
													OFFSET -188.809540 -114.533607 132.431396
												}
											}
										}
									}
								}
								JOINT mixamorig:RightHandIndex1
								{
									OFFSET -9.108284 -0.517868 2.259835
									CHANNELS 6 Xposition Yposition Zposition Xrotation Yrotation Zrotation
									JOINT mixamorig:RightHandIndex2
									{
										OFFSET -3.699989 0.000000 0.001215
										CHANNELS 6 Xposition Yposition Zposition Xrotation Yrotation Zrotation
										JOINT mixamorig:RightHandIndex3
										{
											OFFSET -2.850006 0.000031 -0.000522
											CHANNELS 6 Xposition Yposition Zposition Xrotation Yrotation Zrotation
											JOINT mixamorig:RightHandIndex4
											{
												OFFSET -2.772186 -0.000015 -0.000020
												CHANNELS 6 Xposition Yposition Zposition Xrotation Yrotation Zrotation
												End Site
												{
													OFFSET -277.218445 0.000000 -0.050231
												}
											}
										}
									}
								}
								JOINT mixamorig:RightHandMiddle1
								{
									OFFSET -9.532516 -0.000031 -0.000023
									CHANNELS 6 Xposition Yposition Zposition Xrotation Yrotation Zrotation
									JOINT mixamorig:RightHandMiddle2
									{
										OFFSET -3.700005 -0.000015 0.003713
										CHANNELS 6 Xposition Yposition Zposition Xrotation Yrotation Zrotation
										JOINT mixamorig:RightHandMiddle3
										{
											OFFSET -2.949974 0.000015 -0.002054
											CHANNELS 6 Xposition Yposition Zposition Xrotation Yrotation Zrotation
											JOINT mixamorig:RightHandMiddle4
											{
												OFFSET -2.946640 0.000000 -0.000156
												CHANNELS 6 Xposition Yposition Zposition Xrotation Yrotation Zrotation
												End Site
												{
													OFFSET -294.664337 0.000000 -0.113670
												}
											}
										}
									}
								}
								JOINT mixamorig:RightHandRing1
								{
									OFFSET -9.103600 -0.043076 -1.865134
									CHANNELS 6 Xposition Yposition Zposition Xrotation Yrotation Zrotation
									JOINT mixamorig:RightHandRing2
									{
										OFFSET -3.379288 0.000000 -0.001055
										CHANNELS 6 Xposition Yposition Zposition Xrotation Yrotation Zrotation
										JOINT mixamorig:RightHandRing3
										{
											OFFSET -2.889687 -0.000015 0.000379
											CHANNELS 6 Xposition Yposition Zposition Xrotation Yrotation Zrotation
											JOINT mixamorig:RightHandRing4
											{
												OFFSET -2.638809 -0.000015 0.000941
												CHANNELS 6 Xposition Yposition Zposition Xrotation Yrotation Zrotation
												End Site
												{
													OFFSET -263.880371 0.000000 0.516020
												}
											}
										}
									}
								}
								JOINT mixamorig:RightHandPinky1
								{
									OFFSET -8.076683 -0.486710 -3.806280
									CHANNELS 6 Xposition Yposition Zposition Xrotation Yrotation Zrotation
									JOINT mixamorig:RightHandPinky2
									{
										OFFSET -3.600014 -0.000015 -0.003747
										CHANNELS 6 Xposition Yposition Zposition Xrotation Yrotation Zrotation
										JOINT mixamorig:RightHandPinky3
										{
											OFFSET -2.099983 0.000000 -0.005739
											CHANNELS 6 Xposition Yposition Zposition Xrotation Yrotation Zrotation
											JOINT mixamorig:RightHandPinky4
											{
												OFFSET -2.115768 -0.000031 -0.003680
												CHANNELS 6 Xposition Yposition Zposition Xrotation Yrotation Zrotation
												End Site
												{
													OFFSET -211.577087 0.000000 -0.350686
												}
											}
										}
									}
								}
							}
						}
					}
				}
				JOINT mixamorig:LeftShoulder
				{
					OFFSET 4.570447 11.014725 -2.160855
					CHANNELS 6 Xposition Yposition Zposition Xrotation Yrotation Zrotation
					JOINT mixamorig:LeftArm
					{
						OFFSET 10.592371 -0.524597 -2.232119
						CHANNELS 6 Xposition Yposition Zposition Xrotation Yrotation Zrotation
						JOINT mixamorig:LeftForeArm
						{
							OFFSET 27.841532 -0.000031 0.000026
							CHANNELS 6 Xposition Yposition Zposition Xrotation Yrotation Zrotation
							JOINT mixamorig:LeftHand
							{
								OFFSET 28.328846 -0.000061 0.000022
								CHANNELS 6 Xposition Yposition Zposition Xrotation Yrotation Zrotation
								JOINT mixamorig:LeftHandThumb1
								{
									OFFSET 2.466141 -1.576172 2.681732
									CHANNELS 6 Xposition Yposition Zposition Xrotation Yrotation Zrotation
									JOINT mixamorig:LeftHandThumb2
									{
										OFFSET 3.217812 -1.872070 1.916482
										CHANNELS 6 Xposition Yposition Zposition Xrotation Yrotation Zrotation
										JOINT mixamorig:LeftHandThumb3
										{
											OFFSET 2.656029 -1.528778 1.514513
											CHANNELS 6 Xposition Yposition Zposition Xrotation Yrotation Zrotation
											JOINT mixamorig:LeftHandThumb4
											{
												OFFSET 2.020889 -1.154053 1.115139
												CHANNELS 6 Xposition Yposition Zposition Xrotation Yrotation Zrotation
												End Site
												{
													OFFSET 190.885437 -115.081749 130.048782
												}
											}
										}
									}
								}
								JOINT mixamorig:LeftHandIndex1
								{
									OFFSET 9.109314 -0.518021 2.259871
									CHANNELS 6 Xposition Yposition Zposition Xrotation Yrotation Zrotation
									JOINT mixamorig:LeftHandIndex2
									{
										OFFSET 3.699989 0.000000 -0.000322
										CHANNELS 6 Xposition Yposition Zposition Xrotation Yrotation Zrotation
										JOINT mixamorig:LeftHandIndex3
										{
											OFFSET 2.850006 0.000000 0.000352
											CHANNELS 6 Xposition Yposition Zposition Xrotation Yrotation Zrotation
											JOINT mixamorig:LeftHandIndex4
											{
												OFFSET 2.774864 -0.000031 -0.000027
												CHANNELS 6 Xposition Yposition Zposition Xrotation Yrotation Zrotation
												End Site
												{
													OFFSET 277.486267 0.000000 -0.009857
												}
											}
										}
									}
								}
								JOINT mixamorig:LeftHandMiddle1
								{
									OFFSET 9.533394 0.000061 0.000044
									CHANNELS 6 Xposition Yposition Zposition Xrotation Yrotation Zrotation
									JOINT mixamorig:LeftHandMiddle2
									{
										OFFSET 3.699989 -0.000015 -0.000231
										CHANNELS 6 Xposition Yposition Zposition Xrotation Yrotation Zrotation
										JOINT mixamorig:LeftHandMiddle3
										{
											OFFSET 2.949997 -0.000015 -0.000059
											CHANNELS 6 Xposition Yposition Zposition Xrotation Yrotation Zrotation
											JOINT mixamorig:LeftHandMiddle4
											{
												OFFSET 2.952896 0.000031 0.000063
												CHANNELS 6 Xposition Yposition Zposition Xrotation Yrotation Zrotation
												End Site
												{
													OFFSET 295.289337 0.000000 0.022810
												}
											}
										}
									}
								}
								JOINT mixamorig:LeftHandRing1
								{
									OFFSET 9.104523 -0.042999 -1.865074
									CHANNELS 6 Xposition Yposition Zposition Xrotation Yrotation Zrotation
									JOINT mixamorig:LeftHandRing2
									{
										OFFSET 3.150009 -0.000031 0.000043
										CHANNELS 6 Xposition Yposition Zposition Xrotation Yrotation Zrotation
										JOINT mixamorig:LeftHandRing3
										{
											OFFSET 2.949982 -0.000015 0.000040
											CHANNELS 6 Xposition Yposition Zposition Xrotation Yrotation Zrotation
											JOINT mixamorig:LeftHandRing4
											{
												OFFSET 2.644348 0.000000 0.000057
												CHANNELS 6 Xposition Yposition Zposition Xrotation Yrotation Zrotation
												End Site
												{
													OFFSET 264.434631 0.000000 0.012105
												}
											}
										}
									}
								}
								JOINT mixamorig:LeftHandPinky1
								{
									OFFSET 8.077789 -0.486847 -3.806259
									CHANNELS 6 Xposition Yposition Zposition Xrotation Yrotation Zrotation
									JOINT mixamorig:LeftHandPinky2
									{
										OFFSET 3.599953 0.000031 0.014727
										CHANNELS 6 Xposition Yposition Zposition Xrotation Yrotation Zrotation
										JOINT mixamorig:LeftHandPinky3
										{
											OFFSET 2.100021 0.000015 0.007705
											CHANNELS 6 Xposition Yposition Zposition Xrotation Yrotation Zrotation
											JOINT mixamorig:LeftHandPinky4
											{
												OFFSET 2.125504 0.000031 0.007517
												CHANNELS 6 Xposition Yposition Zposition Xrotation Yrotation Zrotation
												End Site
												{
													OFFSET 212.550781 0.000000 0.625752
												}
											}
										}
									}
								}
							}
						}
					}
				}
			}
		}
	}
	JOINT mixamorig:RightUpLeg
	{
		OFFSET -8.207787 -6.751648 -1.599560
		CHANNELS 6 Xposition Yposition Zposition Xrotation Yrotation Zrotation
		JOINT mixamorig:RightLeg
		{
			OFFSET -0.000002 -44.370117 0.345942
			CHANNELS 6 Xposition Yposition Zposition Xrotation Yrotation Zrotation
			JOINT mixamorig:RightFoot
			{
				OFFSET 0.000003 -44.423679 -3.043532
				CHANNELS 6 Xposition Yposition Zposition Xrotation Yrotation Zrotation
				JOINT mixamorig:RightToeBase
				{
					OFFSET -0.000002 -8.728671 10.710558
					CHANNELS 6 Xposition Yposition Zposition Xrotation Yrotation Zrotation
					JOINT mixamorig:RightToe_End
					{
						OFFSET -0.000001 -0.000679 9.278119
						CHANNELS 6 Xposition Yposition Zposition Xrotation Yrotation Zrotation
						End Site
						{
							OFFSET 0.000000 -0.067690 927.812134
						}
					}
				}
			}
		}
	}
	JOINT mixamorig:LeftUpLeg
	{
		OFFSET 8.207793 -6.751686 -1.599556
		CHANNELS 6 Xposition Yposition Zposition Xrotation Yrotation Zrotation
		JOINT mixamorig:LeftLeg
		{
			OFFSET -0.000004 -44.370014 0.346954
			CHANNELS 6 Xposition Yposition Zposition Xrotation Yrotation Zrotation
			JOINT mixamorig:LeftFoot
			{
				OFFSET -0.000001 -44.423672 -3.044401
				CHANNELS 6 Xposition Yposition Zposition Xrotation Yrotation Zrotation
				JOINT mixamorig:LeftToeBase
				{
					OFFSET -0.000002 -8.728669 10.710558
					CHANNELS 6 Xposition Yposition Zposition Xrotation Yrotation Zrotation
					JOINT mixamorig:LeftToe_End
					{
						OFFSET -0.000003 -0.000679 9.278133
						CHANNELS 6 Xposition Yposition Zposition Xrotation Yrotation Zrotation
						End Site
						{
							OFFSET 0.000000 -0.068021 927.813477
						}
					}
				}
			}
		}
	}
}
MOTION
Frames: 3
Frame Time: 0.033333
0.000006 104.270477 1.554256 0.000010 0.000003 -0.000113 -0.000005 10.181587 0.131522 0.000001 -0.000003 0.000084 -0.000000 9.893967 -1.470711 0.000001 0.000000 -0.000000 -0.000000 9.220802 -1.370642 0.000000 -0.000000 -0.000000 0.000001 16.740433 -2.049030 0.000000 -0.000000 -0.000000 0.000000 9.617859 1.685014 0.000000 0.000000 0.000000 0.000002 22.037384 7.501101 0.000000 -0.000000 0.000000 -4.569968 11.014880 -2.160881 0.000008 0.000001 -0.000038 -10.592776 -0.524836 -2.231746 66.678936 69.586705 -49.131624 -27.841465 0.000028 0.000607 36.378534 109.113030 -49.556905 -28.328829 0.000006 0.000028 -0.000320 -0.000044 0.000007 -2.464768 -1.574167 2.681989 121.853484 -171.695123 163.812443 -3.214922 -1.873058 1.924493 271.098077 -42.673495 321.642815 -2.654475 -1.528212 1.512958 225.764649 -57.764406 -82.570136 -2.018833 -1.152020 1.108060 -0.000004 0.000002 -0.000001 -9.108303 -0.517842 2.260381 218.143879 3.385051 -350.132436 -3.700002 0.000021 0.001777 218.263913 6.458370 -341.568089 -2.850021 0.000019 0.000029 218.999074 4.354188 12.253236 -2.772171 -0.000000 -0.000039 0.000000 -0.000000 0.000000 -9.532505 -0.000112 0.000506 223.767447 0.561470 1.679211 -3.700005 -0.000073 0.004234 231.617835 1.412072 2.759498 -2.949990 -0.000087 -0.001517 232.182691 0.705316 1.428155 -2.946625 0.000000 -0.000152 0.000002 0.000000 0.000000 -9.103608 -0.043091 -1.864617 226.464334 3.405200 7.846289 -3.379273 -0.000134 -0.000559 240.449597 1.006608 -358.247028 -2.889708 -0.000126 0.000823 244.132763 -2.610621 -4.097604 -2.638813 0.000000 0.000926 -0.000004 -0.000000 -0.000002 -8.076668 -0.486742 -3.805758 224.343820 3.304787 -352.173597 -3.599982 -0.000173 -0.003285 245.329576 -3.245917 -5.580586 -2.099940 -0.000237 -0.005366 256.584307 -8.766153 -11.380721 -2.115780 -0.000050 -0.003676 0.000002 -0.000001 -0.000002 4.570446 11.014691 -2.160851 -0.000018 0.000010 -0.000021 10.592530 -0.524521 -2.232400 73.893925 -63.021083 49.507100 27.841742 -0.000059 -0.000118 267.829558 -80.670688 277.181043 28.328829 -0.000014 0.000022 0.000018 -0.000090 0.000001 2.466166 -1.576154 2.681870 144.695727 198.771113 -168.045193 3.217843 -1.871909 1.916589 310.288500 -3.649386 -346.618003 2.656065 -1.528737 1.514637 -67.871043 12.644333 20.629087 2.020887 -1.154039 1.115150 0.000000 0.000006 0.000004 9.109262 -0.517780 2.260109 -113.705028 -14.064924 -21.382688 3.699935 0.000250 -0.000091 242.735825 -9.868482 343.861420 2.849972 0.000297 0.000587 240.049047 -5.886620 349.833601 2.774889 -0.000015 -0.000024 0.000001 -0.000001 -0.000001 9.533333 0.000278 0.000281 -110.052249 -12.625765 -17.966000 3.699965 0.000235 0.000015 -111.435308 -8.158500 -11.941930 2.949976 0.000238 0.000165 68.055978 -172.738052 169.259082 2.952863 -0.000031 0.000064 0.000000 0.000001 0.000001 9.104491 -0.042790 -1.864830 -107.777516 -10.155993 -13.891479 3.149984 0.000234 0.000270 -104.694840 -6.637064 -8.597269 2.949965 0.000236 0.000289 -102.780352 -5.776328 -7.231500 2.644325 0.000013 0.000051 0.000001 -0.000003 0.000000 8.077731 -0.486667 -3.806008 -103.721217 -10.604326 -13.951695 3.599935 0.000253 0.014980 -100.945224 -6.927653 -8.833307 2.099983 0.000219 0.007958 -100.063569 -3.948070 -5.155814 2.125501 -0.000001 0.007507 0.000001 -0.000001 0.000001 -8.207786 -6.751667 -1.599560 -0.077001 -0.000003 0.000080 -0.000002 -44.370110 0.345938 0.153719 -0.000000 -0.000000 0.000000 -44.423679 -3.043532 -0.076700 0.000000 -0.000002 -0.000006 -8.728667 10.710559 -0.000009 -0.000000 -0.000000 -0.000001 -0.000679 9.278123 0.000000 -0.000000 -0.000000 8.207792 -6.751710 -1.599556 -0.074518 -0.000003 0.000081 -0.000002 -44.370014 0.346960 0.148822 0.000002 0.000000 -0.000001 -44.423664 -3.044403 -0.074314 0.000000 -0.000002 -0.000004 -8.728671 10.710558 0.000007 -0.000000 -0.000000 0.000000 -0.000680 9.278137 -0.000000 0.000000 -0.000001 
0.000006 104.270477 1.554256 0.000010 0.000003 -0.000113 -0.000005 10.181587 0.131522 0.000001 -0.000003 0.000084 -0.000000 9.893967 -1.470711 0.000001 0.000000 -0.000000 -0.000000 9.220802 -1.370642 0.000000 -0.000000 -0.000000 0.000001 16.740433 -2.049030 0.000000 -0.000000 -0.000000 0.000000 9.617859 1.685014 0.000000 0.000000 0.000000 0.000002 22.037384 7.501101 0.000000 -0.000000 0.000000 -4.569968 11.014880 -2.160881 0.000008 0.000001 -0.000038 -10.592779 -0.524843 -2.231743 64.455669 69.660457 -47.368499 -27.841457 0.000010 0.000610 35.795990 110.003216 -49.523188 -28.328829 0.000022 0.000021 -0.000320 -0.000044 0.000007 -2.464749 -1.574191 2.682011 118.896696 -167.998966 162.507440 -3.214930 -1.873041 1.924497 268.507577 -42.334629 320.082855 -2.654510 -1.528238 1.512937 236.920466 -54.651929 -70.614068 -2.018826 -1.151994 1.108071 -0.000006 -0.000004 -0.000001 -9.108302 -0.517867 2.260376 218.286753 2.532833 -352.612040 -3.700000 -0.000005 0.001758 219.913472 2.532863 -353.080892 -2.850023 -0.000015 0.000025 221.505944 -0.177813 -0.471338 -2.772164 0.000001 -0.000028 0.000000 -0.000000 0.000000 -9.532506 -0.000110 0.000495 223.883328 1.030181 2.834058 -3.700000 -0.000108 0.004215 234.427447 -1.019241 -2.140583 -2.949990 -0.000113 -0.001549 236.502130 -3.452119 -6.431580 -2.946618 -0.000014 -0.000159 0.000002 -0.000000 0.000000 -9.103617 -0.043097 -1.864599 225.474298 3.229735 7.619184 -3.379268 -0.000175 -0.000593 243.968237 -2.780920 -364.426464 -2.889691 -0.000176 0.000818 250.193927 -8.432864 -11.911784 -2.638821 -0.000034 0.000932 -0.000003 -0.000002 -0.000001 -8.076667 -0.486740 -3.805774 223.365436 1.506869 -356.504428 -3.599968 -0.000228 -0.003296 246.482512 -8.967174 -14.195576 -2.099910 -0.000278 -0.005418 261.908494 -17.084099 -19.925286 -2.115772 -0.000037 -0.003674 -0.000001 -0.000001 0.000001 4.570446 11.014691 -2.160851 -0.000018 0.000010 -0.000021 10.592531 -0.524523 -2.232399 74.585065 -63.116337 50.137420 27.841732 -0.000059 -0.000122 265.073604 -80.510390 274.595953 28.328842 -0.000013 0.000020 0.000022 -0.000088 -0.000001 2.466169 -1.576135 2.681882 144.228569 197.012927 -168.211536 3.217842 -1.871932 1.916599 308.432382 -3.191481 -346.175980 2.656084 -1.528717 1.514635 -66.730853 9.788355 19.714803 2.020887 -1.154082 1.115151 0.000003 0.000003 0.000004 9.109242 -0.517753 2.260109 -115.289481 -14.275077 -22.351101 3.699937 0.000239 -0.000096 241.888691 -10.053271 343.289351 2.849977 0.000283 0.000557 238.380022 -5.036396 350.999241 2.774887 -0.000030 -0.000031 0.000001 -0.000002 0.000000 9.533339 0.000308 0.000290 -112.007070 -12.598170 -18.583080 3.699977 0.000240 0.000022 -111.525070 -7.243064 -10.623704 2.949976 0.000226 0.000197 68.259995 -173.837713 170.915703 2.952873 -0.000031 0.000062 -0.000000 0.000000 -0.000000 9.104491 -0.042783 -1.864819 -108.002168 -10.566023 -14.508544 3.149981 0.000238 0.000287 -105.161404 -6.535444 -8.537252 2.949969 0.000232 0.000277 -103.854133 -5.279402 -6.738314 2.644327 0.000016 0.000056 -0.000001 -0.000002 -0.000001 8.077748 -0.486650 -3.806004 -103.469539 -11.025337 -14.415048 3.599926 0.000245 0.014987 -102.004716 -6.862707 -8.921226 2.099990 0.000247 0.007946 -103.303831 -3.544549 -4.955634 2.125507 -0.000016 0.007522 0.000002 -0.000000 -0.000001 -8.207786 -6.751667 -1.599560 -0.077001 -0.000003 0.000080 -0.000002 -44.370110 0.345938 0.153719 -0.000000 -0.000000 0.000000 -44.423679 -3.043532 -0.076700 0.000000 -0.000002 -0.000006 -8.728667 10.710559 -0.000009 -0.000000 -0.000000 -0.000001 -0.000679 9.278123 0.000000 -0.000000 -0.000000 8.207792 -6.751710 -1.599556 -0.074518 -0.000003 0.000081 -0.000002 -44.370014 0.346960 0.148822 0.000002 0.000000 -0.000001 -44.423664 -3.044403 -0.074314 0.000000 -0.000002 -0.000004 -8.728671 10.710558 0.000007 -0.000000 -0.000000 0.000000 -0.000680 9.278137 -0.000000 0.000000 -0.000001 
0.000006 104.270477 1.554256 0.000010 0.000003 -0.000113 -0.000005 10.181587 0.131522 0.000001 -0.000003 0.000084 -0.000000 9.893967 -1.470711 0.000001 0.000000 -0.000000 -0.000000 9.220802 -1.370642 0.000000 -0.000000 -0.000000 0.000001 16.740433 -2.049030 0.000000 -0.000000 -0.000000 0.000000 9.617859 1.685014 0.000000 0.000000 0.000000 0.000002 22.037384 7.501101 0.000000 -0.000000 0.000000 -4.569968 11.014880 -2.160881 0.000008 0.000001 -0.000038 -10.592780 -0.524839 -2.231743 66.239591 68.803706 -48.143299 -27.841471 -0.000000 0.000612 34.641415 108.685310 -46.987655 -28.328829 0.000022 0.000030 -0.000317 -0.000044 0.000007 -2.464751 -1.574175 2.682020 119.446321 -168.697558 162.764200 -3.214913 -1.873050 1.924492 269.295863 -44.457575 319.870272 -2.654474 -1.528234 1.512927 235.743324 -57.255604 -73.138656 -2.018823 -1.151997 1.108048 -0.000005 0.000000 0.000004 -9.108302 -0.517892 2.260384 224.161795 2.996732 -352.536116 -3.700005 -0.000033 0.001753 224.736296 5.246571 -347.333697 -2.850027 0.000002 0.000014 224.124366 3.246038 7.996554 -2.772163 -0.000015 -0.000014 0.000000 -0.000001 -0.000000 -9.532515 -0.000118 0.000492 228.060945 1.025004 2.549620 -3.700011 -0.000069 0.004227 234.995636 2.554206 4.760088 -2.950007 -0.000079 -0.001522 234.682896 1.649287 3.177982 -2.946625 0.000015 -0.000142 -0.000003 -0.000000 0.000000 -9.103622 -0.043121 -1.864597 230.667127 3.391196 7.086640 -3.379281 -0.000107 -0.000575 241.509806 1.161767 -358.023080 -2.889713 -0.000145 0.000849 244.922988 -1.811789 -2.781401 -2.638811 -0.000016 0.000952 0.000004 0.000000 0.000001 -8.076669 -0.486772 -3.805755 231.397657 3.266351 -353.451580 -3.599982 -0.000225 -0.003288 246.076416 -2.906106 -4.976425 -2.099946 -0.000222 -0.005380 255.568057 -7.160763 -9.519205 -2.115771 -0.000071 -0.003681 -0.000001 -0.000001 -0.000002 4.570446 11.014691 -2.160851 -0.000018 0.000010 -0.000021 10.592528 -0.524519 -2.232401 74.392365 -62.336937 49.315810 27.841736 -0.000051 -0.000116 265.364734 -80.112074 275.289600 28.328833 -0.000027 0.000020 0.000020 -0.000089 -0.000000 2.466177 -1.576160 2.681874 144.525054 194.715921 -168.521913 3.217841 -1.871943 1.916594 308.657861 -0.309318 -346.116968 2.656065 -1.528750 1.514637 -67.522103 13.936992 20.727399 2.020887 -1.154054 1.115145 0.000001 0.000000 0.000001 9.109253 -0.517765 2.260115 -118.190946 -13.279662 -21.998228 3.699940 0.000253 -0.000084 238.015482 -9.464901 342.996964 2.849989 0.000293 0.000572 235.012521 -4.961053 350.490256 2.774884 -0.000029 -0.000017 0.000002 -0.000001 0.000001 9.533348 0.000296 0.000283 -114.933123 -11.590487 -18.072290 3.699972 0.000242 0.000026 -114.809715 -7.054915 -11.010485 2.949982 0.000237 0.000171 64.659393 -173.756912 170.146897 2.952867 -0.000015 0.000061 -0.000002 0.000002 -0.000001 9.104499 -0.042808 -1.864846 -110.657712 -9.625951 -13.882990 3.149983 0.000250 0.000290 -108.708751 -4.915395 -6.852183 2.949971 0.000267 0.000291 -108.353670 -3.770242 -5.223280 2.644324 0.000016 0.000058 -0.000000 -0.000001 0.000000 8.077744 -0.486664 -3.806015 -105.663955 -9.810814 -13.413246 3.599934 0.000250 0.014990 -104.129014 -4.687320 -6.502590 2.099991 0.000229 0.007959 -105.734422 -1.524130 -2.530281 2.125497 -0.000002 0.007521 -0.000001 0.000002 -0.000000 -8.207786 -6.751667 -1.599560 -0.077001 -0.000003 0.000080 -0.000002 -44.370110 0.345938 0.153719 -0.000000 -0.000000 0.000000 -44.423679 -3.043532 -0.076700 0.000000 -0.000002 -0.000006 -8.728667 10.710559 -0.000009 -0.000000 -0.000000 -0.000001 -0.000679 9.278123 0.000000 -0.000000 -0.000000 8.207792 -6.751710 -1.599556 -0.074518 -0.000003 0.000081 -0.000002 -44.370014 0.346960 0.148822 0.000002 0.000000 -0.000001 -44.423664 -3.044403 -0.074314 0.000000 -0.000002 -0.000004 -8.728671 10.710558 0.000007 -0.000000 -0.000000 0.000000 -0.000680 9.278137 -0.000000 0.000000 -0.000001 
